<?xml version="1.0" encoding="UTF-8" standalone="no"?>
<!DOCTYPE svg PUBLIC "-//W3C//DTD SVG 20010904//EN" "http://www.w3.org/TR/2001/REC-SVG-20010904/DTD/svg10.dtd">
<svg version="1.0" xmlns="http://www.w3.org/2000/svg" width="1116.000000pt" height="1280.000000pt" viewBox="0 0 1116.000000 1280.000000" preserveAspectRatio="xMidYMid meet">
<metadata>
Created by potrace 1.15, written by Peter Selinger 2001-2017
</metadata>
<g transform="translate(0.000000,1280.000000) scale(0.100000,-0.100000)" fill="red" stroke="none">
<path d="M5410 12793 c-44 -16 -380 -188 -475 -243 -575 -330 -1088 -787 -1497 -1332 -359 -477 -665 -1057 -901 -1708 -25 -69 -48 -132 -52 -141 -5 -13 11 -20 82 -38 943 -244 1792 -599 2529 -1060 99 -62 187 -119 198 -126 22 -17 64 35 -379 -467 -1079 -1218 -2149 -2485 -2926 -3463 -1446 -1819 -2105 -2885 -1971 -3187 23 -54 57 -80 317 -253 594 -393 1357 -787 1497 -773 75 7 58 66 -51 181 -39 40 -75 86 -81 101 -18 48 -11 158 15 261 178 683 1238 2327 3085 4785 450 598 1387 1810 1499 1940 l31 35 172 -175 c655 -664 1221 -1529 1644 -2510 36 -84 69 -146 78 -148 23 -5 361 112 519 179 1200 511 1964 1501 2368 3064 27 104 45 192 41 196 -4 3 -59 23 -122 43 -677 219 -1427 563 -2050 941 -297 180 -872 583 -887 622 -3 8 13 36 36 63 52 62 71 106 71 167 -1 91 -14 107 -379 448 -351 328 -398 365 -471 365 -70 0 -112 -20 -181 -87 l-67 -64 -133 146 c-349 384 -702 845 -996 1301 -170 262 -397 653 -502 863 -23 45 -42 81 -44 80 -1 0 -9 -3 -17 -6z"/>
</g>
</svg>